<svg height="1024" node-id="1" sillyvg="true" template-height="1024" template-width="1024" version="1.1" viewBox="0 0 1024 1024" width="1024" xmlns="http://www.w3.org/2000/svg" xmlns:xlink="http://www.w3.org/1999/xlink"><defs node-id="14"></defs><g node-id="34"><g node-id="35"><path d="M 635.84 765.19 L 385.45 768.02 C 374.74 768.14 365.89 759.70 365.51 748.99 L 349.69 305.19 C 349.29 294.02 358.24 284.76 369.41 284.76 L 654.45 284.76 C 665.68 284.76 674.64 294.12 674.16 305.33 L 655.33 746.30 C 654.88 756.77 646.32 765.07 635.84 765.19 Z" fill="#799ed1" fill-rule="nonzero" stroke="#523510" stroke-linecap="butt" stroke-width="15.91"/><path d="M 653.48 662.19 L 367.26 662.19 C 356.94 662.19 348.36 654.24 347.58 643.94 L 334.88 475.79 C 334.02 464.34 343.07 454.57 354.56 454.57 L 669.07 454.57 C 680.69 454.57 689.79 464.56 688.72 476.12 L 673.13 644.27 C 672.19 654.42 663.67 662.18 653.48 662.18 Z" fill="#c3e9ed" fill-rule="nonzero" stroke="#523510" stroke-linecap="butt" stroke-width="15.91"/><path d="M 533.00 522.01 C 539.21 525.59 542.95 532.86 543.41 542.22 C 543.86 551.58 540.98 562.26 535.41 571.90 C 529.84 581.55 522.03 589.38 513.70 593.67 C 505.37 597.96 497.20 598.36 490.99 594.77 C 484.79 591.19 481.05 583.92 480.59 574.56 C 480.14 565.20 483.02 554.52 488.59 544.87 C 494.16 535.23 501.97 527.40 510.30 523.11 C 518.63 518.82 526.80 518.42 533.00 522.01 Z" fill="#a35638" fill-rule="nonzero" stroke="none"/><path d="M 348.10 255.98 L 675.90 255.98 C 677.63 255.98 679.03 257.38 679.03 259.11 L 679.03 321.91 C 679.03 322.74 678.70 323.54 678.11 324.12 C 677.53 324.71 676.73 325.04 675.90 325.04 L 348.10 325.04 C 347.27 325.04 346.47 324.71 345.89 324.12 C 345.30 323.54 344.97 322.74 344.97 321.91 L 344.97 259.11 C 344.97 257.38 346.37 255.98 348.10 255.98 Z" fill="#fffffb" fill-rule="nonzero" stroke="#523510" stroke-linecap="butt" stroke-width="15.91"/><path d="M 315.98 295.49 L 708.01 295.49 C 709.80 295.49 711.25 296.94 711.25 298.73 L 711.25 373.22 C 711.25 375.01 709.80 376.46 708.01 376.46 L 315.98 376.46 C 314.19 376.46 312.74 375.01 312.74 373.22 L 312.74 298.73 C 312.74 296.94 314.19 295.49 315.98 295.49 Z" fill="#ffffff" fill-rule="nonzero" stroke="#523510" stroke-linecap="butt" stroke-width="15.91"/></g></g></svg>