<svg height="1024" node-id="1" sillyvg="true" template-height="1024" template-width="1024" version="1.1" viewBox="0 0 1024 1024" width="1024" xmlns="http://www.w3.org/2000/svg" xmlns:xlink="http://www.w3.org/1999/xlink"><defs node-id="33"></defs><g node-id="89"><g node-id="90"><path d="M 372.35 382.53 C 372.35 382.53 305.44 351.59 275.94 432.17 C 275.94 432.17 260.83 481.09 308.32 508.43 C 308.32 508.43 257.96 582.53 339.26 633.62 C 339.26 633.62 308.32 694.77 365.88 714.92 C 365.88 714.92 401.85 730.03 438.55 685.42 C 438.55 685.42 516.25 755.93 552.95 671.75 C 552.95 671.75 603.31 717.08 665.91 652.32 C 665.91 652.32 737.86 653.04 750.09 583.97 C 750.09 583.97 756.57 534.33 705.48 517.06 C 705.48 517.06 752.25 492.60 725.63 440.80 C 725.63 440.80 714.12 414.18 677.43 413.46 C 677.43 413.46 725.63 358.06 668.80 314.89 C 668.80 314.89 624.91 289.71 590.38 327.12 C 590.38 327.12 533.54 283.95 484.62 350.86 C 484.62 350.86 427.06 316.33 372.38 382.52 Z" fill="#fec679" fill-rule="nonzero" stroke="none"/><path d="M 372.35 382.53 C 372.35 382.53 305.44 351.59 275.94 432.17 C 275.94 432.17 260.83 481.09 308.32 508.43 C 308.32 508.43 257.96 582.53 339.26 633.62 C 339.26 633.62 308.32 694.77 365.88 714.92 C 365.88 714.92 401.85 730.03 438.55 685.42 C 438.55 685.42 516.25 755.93 552.95 671.75 C 552.95 671.75 603.31 717.08 665.91 652.32 C 665.91 652.32 737.86 653.04 750.09 583.97 C 750.09 583.97 756.57 534.33 705.48 517.06 C 705.48 517.06 752.25 492.60 725.63 440.80 C 725.63 440.80 714.12 414.18 677.43 413.46 C 677.43 413.46 725.63 358.06 668.80 314.89 C 668.80 314.89 624.91 289.71 590.38 327.12 C 590.38 327.12 533.54 283.95 484.62 350.86 C 484.62 350.86 427.06 316.33 372.38 382.52 Z" fill="none" stroke="#523510" stroke-linecap="round" stroke-width="12.68"/><path d="M 563.01 455.20 C 563.01 461.16 558.34 465.99 552.58 465.99 C 546.82 465.99 542.15 461.16 542.15 455.20 C 542.15 449.24 546.82 444.41 552.58 444.41 C 558.34 444.41 563.01 449.24 563.01 455.20 Z" fill="#f7a757" fill-rule="nonzero" stroke="none"/><path d="M 401.85 641.90 C 401.85 647.66 396.86 652.33 390.70 652.33 C 384.54 652.33 379.55 647.66 379.55 641.90 C 379.55 636.14 384.54 631.47 390.70 631.47 C 396.86 631.47 401.85 636.14 401.85 641.90 Z" fill="#f7a757" fill-rule="nonzero" stroke="none"/><path d="M 590.35 365.26 C 590.35 369.63 586.97 373.17 582.80 373.17 C 578.63 373.17 575.25 369.63 575.25 365.26 C 575.25 360.89 578.63 357.35 582.80 357.35 C 586.97 357.35 590.35 360.89 590.35 365.26 Z" fill="#f7a757" fill-rule="nonzero" stroke="none"/><path d="M 455.82 400.52 C 455.82 402.05 455.25 403.51 454.24 404.59 C 453.23 405.67 451.85 406.28 450.42 406.28 C 448.99 406.28 447.61 405.67 446.60 404.59 C 445.59 403.51 445.02 402.05 445.02 400.52 C 445.02 398.99 445.59 397.53 446.60 396.45 C 447.61 395.37 448.99 394.76 450.42 394.76 C 451.85 394.76 453.23 395.37 454.24 396.45 C 455.25 397.53 455.82 398.99 455.82 400.52 Z" fill="#f7a757" fill-rule="nonzero" stroke="none"/><path d="M 413.37 556.28 C 413.37 558.86 410.47 560.96 406.89 560.96 C 403.31 560.96 400.41 558.86 400.41 556.28 C 400.41 553.70 403.31 551.60 406.89 551.60 C 410.47 551.60 413.37 553.70 413.37 556.28 Z" fill="#f7a757" fill-rule="nonzero" stroke="none"/><path d="M 362.28 458.43 C 362.28 464.59 356.97 469.58 350.41 469.58 C 343.85 469.58 338.54 464.59 338.54 458.43 C 338.54 452.27 343.85 447.28 350.41 447.28 C 356.97 447.28 362.28 452.27 362.28 458.43 Z" fill="#f7a757" fill-rule="nonzero" stroke="none"/><path d="M 660.86 468.87 C 660.86 470.21 660.22 471.49 659.07 472.43 C 657.92 473.38 656.36 473.91 654.74 473.91 C 653.12 473.91 651.56 473.38 650.41 472.43 C 649.26 471.49 648.62 470.21 648.62 468.87 C 648.62 467.53 649.26 466.25 650.41 465.31 C 651.56 464.36 653.12 463.83 654.74 463.83 C 656.36 463.83 657.92 464.36 659.07 465.31 C 660.22 466.25 660.86 467.53 660.86 468.87 Z" fill="#f7a757" fill-rule="nonzero" stroke="none"/><path d="M 671.66 561.32 C 671.66 562.37 671.17 563.38 670.29 564.12 C 669.41 564.86 668.22 565.28 666.98 565.28 C 665.74 565.28 664.55 564.86 663.67 564.12 C 662.79 563.38 662.30 562.37 662.30 561.32 C 662.30 560.27 662.79 559.26 663.67 558.52 C 664.55 557.78 665.74 557.36 666.98 557.36 C 668.22 557.36 669.41 557.78 670.29 558.52 C 671.17 559.26 671.66 560.27 671.66 561.32 Z" fill="#f7a757" fill-rule="nonzero" stroke="none"/><path d="M 655.82 603.77 C 655.82 605.77 655.10 607.69 653.82 609.11 C 652.54 610.52 650.80 611.32 648.99 611.32 C 647.18 611.32 645.44 610.52 644.16 609.11 C 642.88 607.69 642.16 605.77 642.16 603.77 C 642.16 601.77 642.88 599.85 644.16 598.43 C 645.44 597.02 647.18 596.22 648.99 596.22 C 650.80 596.22 652.54 597.02 653.82 598.43 C 655.10 599.85 655.82 601.77 655.82 603.77 Z" fill="#f7a757" fill-rule="nonzero" stroke="none"/><path d="M 501.14 636.50 C 501.14 639.28 498.56 641.54 495.38 641.54 C 492.20 641.54 489.62 639.28 489.62 636.50 C 489.62 633.72 492.20 631.46 495.38 631.46 C 498.56 631.46 501.14 633.72 501.14 636.50 Z" fill="#f7a757" fill-rule="nonzero" stroke="none"/></g></g></svg>