<svg height="1024" node-id="1" sillyvg="true" template-height="1024" template-width="1024" version="1.1" viewBox="0 0 1024 1024" width="1024" xmlns="http://www.w3.org/2000/svg" xmlns:xlink="http://www.w3.org/1999/xlink"><defs node-id="27"></defs><g node-id="71"><g node-id="72"><path d="M 281.74 592.03 C 272.38 630.22 286.36 670.63 317.24 693.92 C 358.52 725.06 437.28 753.24 584.44 728.03 C 856.15 681.48 764.73 533.38 725.70 486.24 C 663.95 411.64 339.57 356.14 281.74 592.03 L 281.74 592.03 Z" fill="#ffc245" fill-rule="nonzero" stroke="#523510" stroke-linecap="round" stroke-width="12.25"/><path d="M 758.41 499.24 C 758.41 499.24 824.42 526.34 803.57 571.15 C 782.73 615.97 726.79 613.05 696.74 606.17 C 666.69 599.29 665.65 652.09 585.22 645.15 C 504.80 638.20 720.19 495.07 758.40 499.24 L 758.41 499.24 Z" fill="#fce69e" fill-rule="nonzero" stroke="#523510" stroke-linecap="round" stroke-width="12.25"/><path d="M 259.54 514.36 C 259.54 514.36 252.42 552.05 232.96 576.37 C 213.50 600.69 205.27 640.42 241.54 627.09 C 309.56 602.09 304.81 653.48 352.64 643.07 C 410.14 630.56 422.82 670.17 472.15 656.97 C 521.48 643.77 545.80 726.45 602.08 663.92 C 658.36 601.39 575.68 545.11 575.68 545.11 L 259.54 514.36 L 259.54 514.36 Z" fill="#a7dc6a" fill-rule="nonzero" stroke="#523510" stroke-linecap="butt" stroke-width="12.25"/><path d="M 265.77 484.61 C 256.41 522.80 270.39 563.21 301.27 586.50 C 342.55 617.64 421.31 645.82 568.47 620.61 C 840.18 574.06 748.76 425.96 709.73 378.82 C 647.98 304.22 323.60 248.72 265.77 484.61 L 265.77 484.61 Z" fill="#ef3c40" fill-rule="nonzero" stroke="#ef3c40" stroke-linecap="butt" stroke-width="4.08"/><path d="M 258.95 456.35 C 249.33 494.54 263.69 534.95 295.45 558.24 C 337.89 589.38 418.85 617.56 570.12 592.35 C 849.43 545.80 755.45 397.70 715.34 350.56 C 651.86 275.96 318.40 220.46 258.96 456.35 L 258.96 456.35 Z" fill="#ffc245" fill-rule="nonzero" stroke="#523510" stroke-linecap="round" stroke-width="12.25"/><path d="M 305.40 410.13 L 319.47 418.99" fill="none" stroke="#000000" stroke-linecap="round" stroke-width="8.16"/><path d="M 294.45 481.53 L 319.47 477.88" fill="none" stroke="#000000" stroke-linecap="round" stroke-width="8.16"/><path d="M 404.41 373.14 L 430.98 360.63" fill="none" stroke="#000000" stroke-linecap="round" stroke-width="8.16"/><path d="M 595.13 351.25 L 595.13 378.87" fill="none" stroke="#000000" stroke-linecap="round" stroke-width="8.16"/><path d="M 516.56 366.88 L 534.68 383.56" fill="none" stroke="#000000" stroke-linecap="round" stroke-width="8.16"/><path d="M 472.15 424.73 L 492.47 438.80" fill="none" stroke="#000000" stroke-linecap="round" stroke-width="8.16"/><path d="M 631.61 444.16 L 656.10 449.74" fill="none" stroke="#000000" stroke-linecap="round" stroke-width="8.16"/><path d="M 696.75 397.63 L 713.94 414.56" fill="none" stroke="#000000" stroke-linecap="round" stroke-width="8.16"/><path d="M 479.45 490.91 L 456.52 507.58" fill="none" stroke="#000000" stroke-linecap="round" stroke-width="8.16"/><path d="M 441.93 549.27 L 437.24 571.16" fill="none" stroke="#000000" stroke-linecap="round" stroke-width="8.16"/><path d="M 547.71 524.78 L 585.23 531.55" fill="none" stroke="#000000" stroke-linecap="round" stroke-width="8.16"/><path d="M 312.43 661.10 C 312.43 661.10 332.64 657.71 360.43 679.70 C 388.22 701.69 415.43 684.02 415.43 684.02" fill="none" stroke="#ff9a06" stroke-linecap="round" stroke-width="8.16"/></g></g></svg>