<svg height="1024" node-id="1" sillyvg="true" template-height="1024" template-width="1024" version="1.1" viewBox="0 0 1024 1024" width="1024" xmlns="http://www.w3.org/2000/svg" xmlns:xlink="http://www.w3.org/1999/xlink"><defs node-id="20"></defs><g node-id="50"><g node-id="51"><path d="M 534.78 299.05 C 534.78 299.05 508.22 224.36 457.89 286.86 C 457.89 286.86 454.10 274.29 443.64 267.08 C 425.35 254.49 400.02 266.21 402.58 293.85 C 402.60 294.05 402.63 294.24 402.66 294.44 C 402.66 294.44 379.85 268.45 359.59 295.59 C 335.65 327.67 387.14 376.65 387.14 376.65 L 525.97 340.58 L 534.78 299.06 Z" fill="#40b903" fill-rule="nonzero" stroke="none"/><path d="M 502.07 334.28 C 502.07 334.28 534.38 260.97 573.79 308.27 C 573.79 308.27 625.25 283.57 610.57 314.19 C 595.89 344.81 551.14 369.93 551.14 369.93 L 502.07 334.28 Z" fill="#93e65f" fill-rule="nonzero" stroke="none"/><path d="M 412.73 358.61 C 412.73 358.61 480.26 290.66 559.74 364.27 L 500.70 448.58 L 412.72 358.61 Z" fill="#ef3c40" fill-rule="nonzero" stroke="none"/><path d="M 515.91 422.36 C 515.91 422.36 494.10 406.84 471.03 411.87 C 471.03 411.87 486.13 369.93 447.54 371.60 C 447.54 371.60 442.09 314.98 414.40 352.31 C 414.40 352.31 404.33 320.85 384.20 333.02 C 384.20 333.02 375.81 340.15 379.59 361.54 C 379.59 361.54 358.62 316.24 341.00 341.41 C 323.38 366.58 356.10 386.71 356.10 386.71 C 356.10 386.71 309.54 402.65 400.35 433.06 C 491.16 463.47 519.68 446.27 515.91 422.36 Z" fill="#85de50" fill-rule="nonzero" stroke="none"/><path d="M 559.74 364.27 C 559.74 364.27 725.84 637.74 680.54 708.21 C 635.24 778.68 546.32 769.45 521.15 740.09 C 495.98 710.73 445.02 431.59 559.74 364.27 Z" fill="#f6dc83" fill-rule="nonzero" stroke="none"/><path d="M 400.35 433.06 C 400.35 433.06 483.40 761.90 557.22 761.06 C 631.04 760.22 620.14 582.38 549.67 489.26 C 479.20 396.14 400.35 433.06 400.35 433.06 Z" fill="#fce69e" fill-rule="nonzero" stroke="none"/><path d="M 534.04 368.67 C 534.04 385.17 520.66 398.55 504.16 398.55 C 487.66 398.55 474.28 385.17 474.28 368.67 C 474.28 352.17 487.66 338.79 504.16 338.79 C 520.66 338.79 534.04 352.17 534.04 368.67 Z" fill="#d32520" fill-rule="nonzero" stroke="none"/><path d="M 428.67 262.47 C 430.28 262.47 431.90 262.63 433.51 262.95 C 452.22 266.70 458.44 288.56 458.44 288.56 C 464.37 275.00 486.09 265.48 486.09 265.48 C 489.47 263.95 492.75 263.28 495.90 263.29 C 517.94 263.29 533.64 296.02 533.64 296.02 C 538.17 294.39 542.34 293.71 546.16 293.71 C 564.78 293.71 574.79 309.83 574.79 309.83 C 589.13 300.42 600.38 299.22 605.16 299.22 C 606.78 299.22 607.66 299.36 607.66 299.36 C 630.34 309.83 559.74 364.27 559.74 364.27 C 559.74 364.27 680.74 571.04 688.37 670.88 C 692.24 721.53 641.61 743.69 602.44 753.21 C 595.53 754.89 588.55 755.71 581.64 755.71 C 553.56 755.71 526.68 742.20 510.26 718.37 C 449.06 629.57 400.36 433.05 400.36 433.05 C 400.36 433.05 391.74 428.33 360.33 414.37 C 328.92 400.41 356.11 386.70 356.11 386.70 C 333.72 370.52 335.46 355.77 335.46 355.77 C 338.68 337.40 347.57 334.20 353.38 334.20 C 356.49 334.20 358.73 335.12 358.73 335.12 C 348.55 301.97 363.09 292.08 363.09 292.08 C 369.71 286.36 376.00 284.37 381.54 284.37 C 394.01 284.37 402.67 294.42 402.67 294.42 C 401.24 284.85 404.32 277.66 408.14 272.66 C 413.03 266.24 420.75 262.46 428.68 262.46 M 428.67 252.22 C 417.50 252.22 406.77 257.54 399.97 266.46 C 397.56 269.63 395.68 273.03 394.37 276.60 C 390.62 275.14 386.31 274.14 381.53 274.14 C 372.76 274.14 364.39 277.50 356.63 284.12 C 353.23 286.77 341.41 298.14 345.82 325.12 C 338.23 327.51 328.78 334.50 325.36 354.01 C 325.33 354.20 325.30 354.38 325.28 354.57 C 325.07 356.38 323.99 370.54 340.05 386.54 C 337.10 390.11 334.80 394.70 334.93 400.25 C 335.16 409.68 342.30 417.59 356.16 423.75 C 375.84 432.50 386.49 437.59 391.57 440.09 C 395.08 453.72 406.35 496.20 422.62 545.62 C 449.24 626.48 475.88 686.56 501.82 724.19 C 519.85 750.35 549.69 765.96 581.64 765.96 C 589.44 765.96 597.25 765.02 604.86 763.17 C 631.02 756.81 652.18 747.53 667.77 735.61 C 678.11 727.70 686.00 718.56 691.20 708.47 C 697.17 696.88 699.65 683.98 698.59 670.10 C 695.33 627.40 672.39 561.98 630.42 475.65 C 606.35 426.15 582.59 383.60 573.01 366.78 C 578.34 362.41 586.03 355.88 593.71 348.60 C 620.63 323.08 623.13 311.30 622.29 303.88 C 621.60 297.72 617.93 292.81 611.96 290.05 C 611.10 289.65 610.19 289.38 609.25 289.23 C 608.75 289.15 607.35 288.97 605.17 288.97 C 599.79 288.97 589.68 290.08 577.04 296.64 C 570.94 290.67 560.58 283.45 546.18 283.45 C 543.72 283.45 541.23 283.67 538.73 284.09 C 536.77 280.90 534.16 277.03 531.00 273.16 C 520.25 259.99 508.12 253.03 495.93 253.02 C 491.20 253.02 486.50 254.06 481.96 256.10 C 480.09 256.92 469.47 261.78 460.38 269.81 C 455.26 262.63 447.32 255.24 435.54 252.88 C 433.29 252.43 430.99 252.20 428.68 252.20 L 428.68 252.20 Z" fill="#523510" fill-rule="nonzero" stroke="none"/><path d="M 397.26 437.72 C 397.26 437.72 428.23 401.15 502.39 444.34 C 502.39 444.34 522.46 374.98 564.33 364.07" fill="none" stroke="#523510" stroke-linecap="round" stroke-width="10.25"/><path d="M 502.39 444.34 C 502.39 444.34 694.19 604.29 574.95 759.59" fill="none" stroke="#523510" stroke-linecap="round" stroke-width="10.25"/></g></g></svg>