<svg height="1024" node-id="1" sillyvg="true" template-height="1024" template-width="1024" version="1.1" viewBox="0 0 1024 1024" width="1024" xmlns="http://www.w3.org/2000/svg" xmlns:xlink="http://www.w3.org/1999/xlink"><defs node-id="22"></defs><g node-id="58"><g node-id="59"><path d="M 777.23 504.23 L 777.23 719.01 L 698.10 726.78 L 659.95 703.46 L 637.34 729.60 L 436.69 741.61 L 412.67 719.00 L 383.70 749.38 L 274.63 755.74 L 274.54 686.50 C 274.54 686.50 305.27 675.90 302.45 656.12 C 299.62 636.34 269.95 634.92 269.95 634.92 C 271.93 609.20 269.66 585.90 265.89 566.48 L 433.16 548.02 L 457.89 511.99 L 501.69 537.07 L 777.23 504.22 L 777.23 504.22 Z" fill="#ffc245" fill-rule="nonzero" stroke="none"/><path d="M 246.63 507.76 C 246.63 507.76 275.60 561.46 269.95 634.93 C 269.95 634.93 299.62 636.34 302.45 656.13 C 305.28 675.91 274.54 686.51 274.54 686.51 L 274.63 755.75 L 383.70 749.39 L 412.67 719.01 L 436.69 741.62 L 637.34 729.61 L 659.95 703.47 L 698.10 726.79 L 777.23 719.02 L 777.23 504.24 C 777.23 504.24 789.24 326.90 585.76 268.26 L 506.63 326.90 L 501.68 377.06 L 476.25 362.93 L 337.77 457.60 L 328.59 489.39 L 299.62 475.26 L 246.63 507.76 L 246.63 507.76 Z" fill="#fce69e" fill-rule="nonzero" stroke="none"/><path d="M 777.23 504.23 L 777.23 719.01 L 698.10 726.78 L 659.95 703.46 L 637.34 729.60 L 436.69 741.61 L 412.67 719.00 L 383.70 749.38 L 274.63 755.74 L 274.54 686.50 C 274.54 686.50 305.27 675.90 302.45 656.12 C 299.62 636.34 269.95 634.92 269.95 634.92 C 271.93 609.20 269.66 585.90 265.89 566.48 L 433.16 548.02 L 457.89 511.99 L 501.69 537.07 L 777.23 504.22 L 777.23 504.22 Z" fill="#ffc245" fill-rule="nonzero" stroke="none"/><path d="M 286.20 564.25 L 433.16 548.03 L 457.88 512.00 L 489.68 530.37" fill="none" stroke="#ff9a06" stroke-linecap="round" stroke-width="12.45"/><path d="M 505.22 537.08 L 717.18 512.00" fill="none" stroke="#ff9a06" stroke-linecap="round" stroke-width="12.45"/><path d="M 451.17 455.48 C 451.17 463.09 445.00 469.26 437.39 469.26 C 429.78 469.26 423.61 463.09 423.61 455.48 C 423.61 447.87 429.78 441.70 437.39 441.70 C 445.00 441.70 451.17 447.87 451.17 455.48 Z" fill="#ffc245" fill-rule="nonzero" stroke="none"/><path d="M 632.39 440.46 C 632.39 454.60 620.92 466.07 606.78 466.07 C 592.64 466.07 581.17 454.60 581.17 440.46 C 581.17 426.32 592.64 414.85 606.78 414.85 C 620.92 414.85 632.39 426.32 632.39 440.46 Z" fill="#ffc245" fill-rule="nonzero" stroke="none"/><path d="M 504.54 605.64 C 511.47 606.77 517.68 610.60 521.79 616.30 C 525.89 622.00 527.57 629.10 526.44 636.03 C 524.10 650.47 510.49 660.28 496.05 657.94 C 481.61 655.59 471.80 641.98 474.15 627.54 C 475.27 620.61 479.11 614.40 484.81 610.30 C 490.51 606.19 497.61 604.51 504.54 605.64 Z" fill="#ff9a06" fill-rule="nonzero" stroke="none"/><path d="M 676.20 590.42 C 676.20 595.76 674.08 600.88 670.30 604.66 C 666.52 608.44 661.40 610.56 656.06 610.56 C 650.72 610.56 645.60 608.44 641.82 604.66 C 638.04 600.88 635.92 595.76 635.92 590.42 C 635.92 585.08 638.04 579.96 641.82 576.18 C 645.60 572.40 650.72 570.28 656.06 570.28 C 661.40 570.28 666.52 572.40 670.30 576.18 C 674.08 579.96 676.20 585.08 676.20 590.42 Z" fill="#ff9a06" fill-rule="nonzero" stroke="none"/><path d="M 615.08 669.73 C 615.08 676.07 609.94 681.21 603.60 681.21 C 597.26 681.21 592.12 676.07 592.12 669.73 C 592.12 663.39 597.26 658.25 603.60 658.25 C 609.94 658.25 615.08 663.39 615.08 669.73 Z" fill="#ff9a06" fill-rule="nonzero" stroke="none"/><path d="M 246.63 507.76 C 246.63 507.76 275.60 561.46 269.95 634.93 C 269.95 634.93 299.62 636.34 302.45 656.13 C 305.28 675.91 274.54 686.51 274.54 686.51 L 274.63 755.75 L 383.70 749.39 L 412.67 719.01 L 436.69 741.62 L 637.34 729.61 L 659.95 703.47 L 698.10 726.79 L 777.23 719.02 L 777.23 504.24 C 777.23 504.24 789.24 326.90 585.76 268.26 L 506.63 326.90 L 501.68 377.06 L 476.25 362.93 L 337.77 457.60 L 328.59 489.39 L 299.62 475.26 L 246.63 507.76 L 246.63 507.76 Z" fill="none" stroke="#523510" stroke-linecap="round" stroke-width="12.45"/></g></g></svg>