<svg height="1024" node-id="1" sillyvg="true" template-height="1024" template-width="1024" version="1.1" viewBox="0 0 1024 1024" width="1024" xmlns="http://www.w3.org/2000/svg" xmlns:xlink="http://www.w3.org/1999/xlink"><defs node-id="29"></defs><g node-id="76"><g node-id="77"><path d="M 510.00 228.43 C 353.39 228.43 226.43 355.39 226.43 512.00 C 226.43 668.61 353.39 795.57 510.00 795.57 C 666.61 795.57 793.57 668.61 793.57 512.00 C 793.57 355.39 666.61 228.43 510.00 228.43 Z M 516.93 572.70 C 468.24 572.70 425.81 555.61 403.41 530.31 C 403.39 529.73 403.34 529.15 403.34 528.57 C 403.34 482.47 461.73 445.10 533.77 445.10 C 582.46 445.10 624.89 462.19 647.29 487.49 C 647.31 488.07 647.36 488.65 647.36 489.23 C 647.36 535.33 588.97 572.70 516.93 572.70 Z" fill="#f5af65" fill-rule="nonzero" stroke="none"/><path d="M 510.00 228.43 C 353.39 228.43 226.43 355.39 226.43 512.00 C 226.43 668.61 353.39 795.57 510.00 795.57 C 666.61 795.57 793.57 668.61 793.57 512.00 C 793.57 355.39 666.61 228.43 510.00 228.43 Z" fill="none" stroke="#523510" stroke-linecap="butt" stroke-width="14.15"/><path d="M 503.02 238.00 C 287.91 250.84 164.43 455.19 230.99 562.91 C 230.99 562.91 291.12 584.74 316.01 629.69 C 340.89 674.64 347.31 683.47 387.44 683.47 C 427.57 683.47 421.95 656.18 452.45 707.55 C 482.95 758.92 560.81 713.17 592.11 686.68 C 623.41 660.19 646.69 735.64 745.41 643.34 C 745.41 643.34 758.25 604.01 802.40 545.42 C 846.55 486.83 718.12 225.17 503.02 238.01 Z M 516.93 572.70 C 468.24 572.70 425.81 555.61 403.41 530.31 C 403.39 529.73 403.34 529.15 403.34 528.57 C 403.34 482.47 461.73 445.10 533.77 445.10 C 582.46 445.10 624.89 462.19 647.29 487.49 C 647.31 488.07 647.36 488.65 647.36 489.23 C 647.36 535.33 588.97 572.70 516.93 572.70 Z" fill="#e1526c" fill-rule="nonzero" stroke="#e1526c" stroke-linecap="butt" stroke-width="4.72"/><path d="M 534.25 447.18 C 581.77 447.18 623.11 463.79 644.98 488.48 C 643.56 444.27 587.23 408.78 517.82 408.78 C 448.41 408.78 390.52 445.26 390.52 490.25 C 390.52 504.83 395.83 518.21 406.31 530.05 C 406.29 529.48 406.24 528.92 406.24 528.35 C 406.24 483.36 463.94 447.18 534.24 447.18 Z" fill="#f49a4a" fill-rule="nonzero" stroke="none"/><path d="M 653.11 359.24 L 707.69 365.66" fill="none" stroke="#f6b068" stroke-linecap="round" stroke-width="14.15"/><path d="M 376.68 629.08 L 395.54 645.34" fill="none" stroke="#f6b068" stroke-linecap="round" stroke-width="14.15"/><path d="M 579.86 362.45 L 561.41 379.18" fill="none" stroke="#b472aa" stroke-linecap="round" stroke-width="14.15"/><path d="M 653.11 633.05 L 657.14 657.63" fill="none" stroke="#f5af65" stroke-linecap="butt" stroke-width="14.15"/><path d="M 414.54 338.04 L 418.57 362.61" fill="none" stroke="#b472aa" stroke-linecap="round" stroke-width="14.15"/><path d="M 244.24 499.60 L 241.93 524.40" fill="none" stroke="#ffffff" stroke-linecap="round" stroke-width="14.15"/><path d="M 732.98 468.25 L 746.62 500.15" fill="none" stroke="#7dbcc0" stroke-linecap="round" stroke-width="14.15"/><path d="M 488.32 299.00 L 522.69 275.73" fill="none" stroke="#7dbcc0" stroke-linecap="round" stroke-width="14.15"/><path d="M 339.28 555.05 L 380.22 572.70" fill="none" stroke="#b472aa" stroke-linecap="round" stroke-width="14.15"/><path d="M 525.63 621.62 L 498.37 652.80" fill="none" stroke="#7dbcc0" stroke-linecap="round" stroke-width="14.15"/><path d="M 647.36 583.94 L 679.46 583.94" fill="none" stroke="#ffffff" stroke-linecap="round" stroke-width="14.15"/><path d="M 320.84 364.31 L 339.28 338.04" fill="none" stroke="#ffffff" stroke-linecap="round" stroke-width="14.15"/><path d="M 296.56 445.48 L 306.19 473.58" fill="none" stroke="#efa9b3" stroke-linecap="round" stroke-width="14.15"/><path d="M 587.07 279.63 L 608.77 299.91" fill="none" stroke="#efa9b3" stroke-linecap="round" stroke-width="14.15"/><path d="M 495.91 698.29 L 524.09 688.94" fill="none" stroke="#efa9b3" stroke-linecap="round" stroke-width="14.15"/></g></g></svg>