<svg height="1024" node-id="1" sillyvg="true" template-height="1024" template-width="1024" version="1.1" viewBox="0 0 1024 1024" width="1024" xmlns="http://www.w3.org/2000/svg" xmlns:xlink="http://www.w3.org/1999/xlink"><defs node-id="24"></defs><g node-id="63"><g node-id="64"><path d="M 275.39 588.94 C 275.39 588.94 293.02 655.13 410.72 624.60 C 528.42 594.06 654.64 391.36 654.64 391.36 L 329.69 419.58 L 275.40 588.94 Z" fill="#ffffff" fill-rule="nonzero" stroke="none"/><path d="M 275.39 588.94 C 275.39 588.94 289.12 656.11 406.82 625.57 C 524.52 595.03 654.64 391.36 654.64 391.36 L 329.69 419.58 L 275.40 588.94 Z" fill="none" stroke="#523510" stroke-linecap="round" stroke-width="15.11"/><path d="M 299.28 580.44 C 288.76 596.47 267.36 601.35 250.92 591.49 C 207.55 565.49 145.68 506.44 220.28 403.36 C 326.44 256.69 625.45 203.49 654.63 391.35 C 654.63 391.35 390.50 441.47 299.28 580.44 Z" fill="#f8d69f" fill-rule="nonzero" stroke="none"/><path d="M 299.28 580.44 C 288.76 596.47 267.36 601.35 250.92 591.49 C 207.55 565.49 145.68 506.44 220.28 403.36 C 326.44 256.69 625.45 203.49 654.63 391.35 C 654.63 391.35 390.50 441.47 299.28 580.44 Z" fill="none" stroke="#523510" stroke-linecap="round" stroke-width="15.11"/><path d="M 321.59 338.53 C 343.26 356.85 382.95 396.67 414.32 463.50 C 421.51 466.05 425.56 467.48 432.75 470.03 L 495.96 439.46 C 502.77 436.17 505.63 428.02 502.42 421.17 C 488.46 391.39 448.71 316.79 390.75 291.22 C 387.46 289.77 383.73 289.82 380.39 291.16 C 369.45 295.54 343.46 306.16 324.27 315.71 C 315.41 320.12 314.02 332.14 321.58 338.53 Z" fill="#7f7f6e" fill-rule="nonzero" stroke="#7f7f6e" stroke-linecap="butt" stroke-width="15.11"/><path d="M 314.83 333.03 C 334.41 348.35 381.45 390.86 416.75 468.79 C 418.57 472.81 423.31 474.60 427.29 472.68 L 501.22 436.92 C 505.02 435.08 506.69 430.57 504.97 426.72 C 493.78 401.75 451.78 316.59 388.53 290.28 C 386.65 289.50 384.54 289.52 382.65 290.27 C 372.19 294.43 336.37 308.90 315.98 320.03 C 311.05 322.72 310.41 329.58 314.84 333.04 Z" fill="none" stroke="#523510" stroke-linecap="round" stroke-width="19.04"/><path d="M 469.87 703.74 C 469.87 703.74 542.28 792.55 689.22 724.48 C 836.16 656.41 825.06 543.67 825.06 543.67 L 638.96 575.70 L 469.87 703.74 Z" fill="#ffffff" fill-rule="nonzero" stroke="none"/><path d="M 469.87 703.74 C 469.87 703.74 535.07 796.36 682.01 728.29 C 828.95 660.22 825.06 543.68 825.06 543.68 L 638.96 575.71 L 469.87 703.75 Z" fill="none" stroke="#523510" stroke-linecap="round" stroke-width="15.11"/><path d="M 521.45 693.84 C 490.08 716.21 446.20 710.20 423.08 679.38 C 387.44 631.88 366.03 552.85 485.54 456.85 C 683.27 298.02 905.84 467.65 819.40 549.77 C 739.18 625.97 705.49 562.60 521.44 693.84 Z" fill="#df9389" fill-rule="nonzero" stroke="none"/><path d="M 564.95 414.17 C 564.95 414.17 749.17 448.74 794.65 570.05" fill="none" stroke="#fab5aa" stroke-linecap="round" stroke-width="15.11"/><path d="M 469.87 472.65 C 469.87 472.65 619.51 488.18 717.01 599.34" fill="none" stroke="#fab5aa" stroke-linecap="round" stroke-width="15.11"/><path d="M 410.72 565.44 C 410.72 565.44 521.87 552.81 615.22 635.88" fill="none" stroke="#fab5aa" stroke-linecap="round" stroke-width="15.11"/><path d="M 528.21 689.06 C 490.74 715.33 438.12 705.48 414.27 666.42 C 384.80 618.15 376.32 544.59 485.54 456.85 C 683.27 298.02 905.84 467.65 819.40 549.77 C 740.18 625.03 706.34 564.15 528.21 689.06 Z" fill="none" stroke="#523510" stroke-linecap="round" stroke-width="15.11"/></g></g></svg>